<svg height="480pt" viewBox="0 -128 480 480" width="480pt" xmlns="http://www.w3.org/2000/svg" xmlns:xlink="http://www.w3.org/1999/xlink"><linearGradient id="a" gradientUnits="userSpaceOnUse" x1="87.176" x2="388.832" y1="13.512" y2="315.168"><stop offset="0" stop-color="#662d91"/><stop offset=".437" stop-color="#3873b3"/><stop offset="1" stop-color="#00c9dd"/></linearGradient><path d="m144 96h16v16h-16zm96 0v16h16v-16zm-144 72c0-13.253906 10.746094-24 24-24s24 10.746094 24 24-10.746094 24-24 24-24-10.746094-24-24zm16 0c0 4.417969 3.582031 8 8 8s8-3.582031 8-8-3.582031-8-8-8-8 3.582031-8 8zm272 0c0 13.253906-10.746094 24-24 24s-24-10.746094-24-24 10.746094-24 24-24 24 10.746094 24 24zm-16 0c0-4.417969-3.582031-8-8-8s-8 3.582031-8 8 3.582031 8 8 8 8-3.582031 8-8zm112 56h-480v-16h93.519531c-11.050781-7.339844-18.578125-18.917969-20.800781-32h-40.71875c-4.417969 0-8-3.582031-8-8v-88c0-4.109375 3.113281-7.550781 7.199219-7.960938l75.058593-7.503906 22.246094-59.34375c1.171875-3.125 4.160156-5.19531225 7.496094-5.191406h152c2.757812 0 5.320312 1.421875 6.785156 3.761719l38.136719 61.039062 124.558594 23.351563c3.777343.710937 6.511719 4.003906 6.519531 7.847656v72c0 4.417969-3.582031 8-8 8h-48.71875c-2.222656 13.082031-9.75 24.660156-20.800781 32h93.519531zm-88-56c0-17.671875-14.328125-32-32-32s-32 14.328125-32 32 14.328125 32 32 32 32-14.328125 32-32zm-72-26.480469v-61.519531h-88v80h80.71875c1.101562-6.601562 3.582031-12.898438 7.28125-18.480469zm-104 18.480469v-80h-96v40c23.398438.042969 43.359375 16.933594 47.28125 40zm232-40h-16v16h16zm0-17.359375-112-21v44.855469c13.589844-7.910156 30.199219-8.640625 44.429688-1.949219 14.230468 6.6875 24.269531 19.941406 26.851562 35.453125h40.71875v-8h-24c-4.417969 0-8-3.582031-8-8v-32c0-4.417969 3.582031-8 8-8h24zm-164.441406-86.640625h-51.558594v48h81.601562zm-142.015625 0-18 48h92.457031v-48zm-37.542969 106.800781v-42l-64 6.398438v72.800781h32.71875c2.933594-17.144531 14.894531-31.371094 31.28125-37.199219zm-16 45.199219c0 17.671875 14.328125 32 32 32s32-14.328125 32-32-14.328125-32-32-32-32 14.328125-32 32zm58.480469 40h187.039062c-11.050781-7.339844-18.578125-18.917969-20.800781-32h-145.4375c-2.222656 13.082031-9.75 24.660156-20.800781 32zm0 0" fill="url(#a)"/></svg>