<?xml version="1.0" encoding="iso-8859-1"?>
<!-- Generator: Adobe Illustrator 19.0.0, SVG Export Plug-In . SVG Version: 6.00 Build 0)  -->
<svg version="1.1" id="Capa_1" xmlns="http://www.w3.org/2000/svg" xmlns:xlink="http://www.w3.org/1999/xlink" x="0px" y="0px"
	 viewBox="0 0 512 512" style="enable-background:new 0 0 512 512;" xml:space="preserve">
<path style="fill:#83B6FF;" d="M512,308.705c0,70.37-57.25,127.62-127.62,127.62h-274.5C49.29,436.325,0,387.035,0,326.445
	s49.29-109.88,109.88-109.88c1.16,0,2.32,0.02,3.48,0.06c-0.03-1.18-0.04-2.35-0.04-3.53c0-75.77,61.64-137.42,137.42-137.42
	c2.45,0,4.9,0.07,7.34,0.2c30.85,1.64,60.27,13.61,83.53,34.13c21.35,18.84,36.24,43.7,42.79,71.08
	C454.76,181.085,512,238.335,512,308.705z"/>
<g>
	<path style="fill:#9CFDFF;" d="M207.71,319.235c-1.19,2.92-2.76,5.38-4.7,7.37c-1.95,2-4.08,3.63-6.41,4.87
		c-2.32,1.24-4.75,2.16-7.29,2.75c-2.54,0.6-5,0.89-7.37,0.89c-4.65,0-8.84-0.94-12.56-2.83c-3.73-1.89-6.92-4.46-9.57-7.7
		c-2.65-3.24-4.67-6.97-6.08-11.19c-1.4-4.21-2.1-8.59-2.1-13.12c0-4.22,0.59-8.38,1.78-12.48c1.19-4.11,3.02-7.78,5.51-11.03
		c2.49-3.24,5.62-5.88,9.4-7.94c3.78-2.05,8.21-3.08,13.29-3.08c2.38,0,4.81,0.25,7.3,0.73c2.48,0.49,4.91,1.35,7.29,2.6
		c2.38,1.24,4.56,2.86,6.56,4.86s3.65,4.51,4.95,7.53l20.42-14.26c-3.89-7.45-9.81-13.5-17.75-18.15s-17.32-6.97-28.12-6.97
		c-9.08,0-17.18,1.68-24.31,5.02c-7.13,3.35-13.19,7.73-18.15,13.13c-4.98,5.41-8.76,11.54-11.35,18.4
		c-2.59,6.86-3.89,13.75-3.89,20.66c0,7.35,1.38,14.59,4.13,21.72c2.76,7.13,6.65,13.51,11.67,19.13
		c5.03,5.62,11.02,10.13,17.99,13.53s14.62,5.11,22.94,5.11c4.75,0,9.61-0.6,14.59-1.79c4.96-1.18,9.66-2.91,14.1-5.18
		c4.43-2.27,8.34-5.08,11.75-8.43c3.4-3.35,5.97-7.13,7.7-11.35L207.71,319.235z"/>
	<path style="fill:#9CFDFF;" d="M345.31,279.205c-2.7-7.03-6.54-13.3-11.5-18.81c-4.98-5.51-10.97-9.94-18-13.29
		c-7.02-3.34-14.8-5.02-23.33-5.02c-8.33,0-16,1.59-23.02,4.78c-4.12,1.87-7.91,4.11-11.38,6.72c-2.44,1.85-4.72,3.87-6.85,6.08
		c-5.14,5.35-9.14,11.54-12,18.56c-2.86,7.03-4.29,14.32-4.29,21.88c0,7.46,1.37,14.7,4.13,21.72c2.76,7.03,6.62,13.27,11.59,18.72
		c2.26,2.48,4.73,4.75,7.42,6.79c3.22,2.46,6.74,4.59,10.57,6.42c7.02,3.35,14.8,5.03,23.34,5.03c8.32,0,15.99-1.62,23.01-4.87
		c7.03-3.24,13.08-7.53,18.16-12.88c5.07-5.35,9.05-11.53,11.91-18.56c2.86-7.02,4.3-14.32,4.3-21.88
		C349.37,293.355,348.01,286.225,345.31,279.205z M320.43,312.835c-1.24,4.16-3.1,7.89-5.59,11.18c-2.48,3.3-5.62,5.97-9.4,8.02
		c-3.78,2.06-8.21,3.08-13.29,3.08c-4.86,0-9.18-0.97-12.97-2.91c-3.78-1.95-6.94-4.54-9.48-7.78c-2.54-3.25-4.45-6.95-5.75-11.11
		c-1.3-4.15-1.95-8.45-1.95-12.88c0-4.32,0.62-8.56,1.87-12.73c1.24-4.15,3.13-7.86,5.67-11.1c2.54-3.24,5.67-5.86,9.4-7.86
		s8.13-3,13.21-3c4.86,0,9.16,0.95,12.89,2.84c3.72,1.89,6.88,4.43,9.48,7.62c2.59,3.19,4.54,6.86,5.83,11.02
		c1.3,4.16,1.95,8.45,1.95,12.88C322.3,304.435,321.67,308.675,320.43,312.835z"/>
</g>
<path style="fill:#FFFFFF;" d="M366.76,367.915c0.46-0.51,1.13-1.08,2.01-1.71c0.89-0.63,1.85-1.27,2.89-1.9s2.09-1.25,3.16-1.86
	c1.06-0.61,1.98-1.14,2.74-1.6c1.11-0.66,2.2-1.38,3.27-2.17c1.06-0.78,2.02-1.69,2.88-2.73c0.87-1.04,1.56-2.22,2.1-3.54
	c0.53-1.32,0.79-2.81,0.79-4.48c0-4.06-1.45-7.28-4.37-9.66c-2.91-2.38-7.11-3.57-12.58-3.57c-2.23,0-4.37,0.2-6.43,0.6
	c-2.05,0.41-3.94,0.95-5.66,1.64c-1.72,0.68-3.27,1.46-4.64,2.32c-1.37,0.86-2.46,1.75-3.27,2.66l7.76,8.97
	c1.47-1.67,2.99-3.03,4.56-4.07s3.42-1.56,5.55-1.56c1.88,0,3.32,0.44,4.33,1.3c1.02,0.86,1.52,2,1.52,3.42
	c0,0.71-0.2,1.33-0.6,1.86c-0.41,0.53-1.08,1.13-2.02,1.79s-2.2,1.42-3.8,2.28c-1.6,0.86-3.59,1.95-5.97,3.27
	c-2.23,1.27-4.08,2.56-5.55,3.88c-1.47,1.31-2.63,2.75-3.5,4.29c-0.86,1.55-1.47,3.26-1.82,5.13c-0.36,1.88-0.53,4.01-0.53,6.39
	h37.86v-10.95H366.76z"/>
<path style="fill:#7984EB;" d="M512,308.705c0,70.37-57.25,127.62-127.62,127.62h-126.3V75.875c30.85,1.64,60.27,13.61,83.53,34.13
	c21.35,18.84,36.24,43.7,42.79,71.08C454.76,181.085,512,238.335,512,308.705z"/>
<g>
	<path style="fill:#55FBFF;" d="M345.31,279.205c-2.7-7.03-6.54-13.3-11.5-18.81c-4.98-5.51-10.97-9.94-18-13.29
		c-7.02-3.34-14.8-5.02-23.33-5.02c-8.33,0-16,1.59-23.02,4.78c-4.12,1.87-7.91,4.11-11.38,6.72v93.75
		c3.22,2.46,6.74,4.59,10.57,6.42c7.02,3.35,14.8,5.03,23.34,5.03c8.32,0,15.99-1.62,23.01-4.87c7.03-3.24,13.08-7.53,18.16-12.88
		c5.07-5.35,9.05-11.53,11.91-18.56c2.86-7.02,4.3-14.32,4.3-21.88C349.37,293.355,348.01,286.225,345.31,279.205z M320.43,312.835
		c-1.24,4.16-3.1,7.89-5.59,11.18c-2.48,3.3-5.62,5.97-9.4,8.02c-3.78,2.06-8.21,3.08-13.29,3.08c-4.86,0-9.18-0.97-12.97-2.91
		c-3.78-1.95-6.94-4.54-9.48-7.78c-2.54-3.25-4.45-6.95-5.75-11.11c-1.3-4.15-1.95-8.45-1.95-12.88c0-4.32,0.62-8.56,1.87-12.73
		c1.24-4.15,3.13-7.86,5.67-11.1c2.54-3.24,5.67-5.86,9.4-7.86s8.13-3,13.21-3c4.86,0,9.16,0.95,12.89,2.84
		c3.72,1.89,6.88,4.43,9.48,7.62c2.59,3.19,4.54,6.86,5.83,11.02c1.3,4.16,1.95,8.45,1.95,12.88
		C322.3,304.435,321.67,308.675,320.43,312.835z"/>
	<path style="fill:#55FBFF;" d="M387.44,367.915v10.95h-37.86c0-2.38,0.17-4.51,0.53-6.39c0.35-1.87,0.96-3.58,1.82-5.13
		c0.87-1.54,2.03-2.98,3.5-4.29c1.47-1.32,3.32-2.61,5.55-3.88c2.38-1.32,4.37-2.41,5.97-3.27s2.86-1.62,3.8-2.28
		s1.61-1.26,2.02-1.79c0.4-0.53,0.6-1.15,0.6-1.86c0-1.42-0.5-2.56-1.52-3.42c-1.01-0.86-2.45-1.3-4.33-1.3
		c-2.13,0-3.98,0.52-5.55,1.56s-3.09,2.4-4.56,4.07l-7.76-8.97c0.81-0.91,1.9-1.8,3.27-2.66c1.37-0.86,2.92-1.64,4.64-2.32
		c1.72-0.69,3.61-1.23,5.66-1.64c2.06-0.4,4.2-0.6,6.43-0.6c5.47,0,9.67,1.19,12.58,3.57c2.92,2.38,4.37,5.6,4.37,9.66
		c0,1.67-0.26,3.16-0.79,4.48c-0.54,1.32-1.23,2.5-2.1,3.54c-0.86,1.04-1.82,1.95-2.88,2.73c-1.07,0.79-2.16,1.51-3.27,2.17
		c-0.76,0.46-1.68,0.99-2.74,1.6c-1.07,0.61-2.12,1.23-3.16,1.86s-2,1.27-2.89,1.9c-0.88,0.63-1.55,1.2-2.01,1.71H387.44z"/>
</g>
<g>
</g>
<g>
</g>
<g>
</g>
<g>
</g>
<g>
</g>
<g>
</g>
<g>
</g>
<g>
</g>
<g>
</g>
<g>
</g>
<g>
</g>
<g>
</g>
<g>
</g>
<g>
</g>
<g>
</g>
</svg>
