<svg height="496pt" viewBox="0 0 496 496" width="496pt" xmlns="http://www.w3.org/2000/svg" xmlns:xlink="http://www.w3.org/1999/xlink"><linearGradient id="a" gradientUnits="userSpaceOnUse" x1="248" x2="248" y1="496" y2="0"><stop offset="0" stop-color="#9f2fff"/><stop offset="1" stop-color="#0bb1d3"/></linearGradient><path d="m400 251.785156c55.113281-14.265625 96-64.273437 96-123.785156 0-70.574219-57.425781-128-128-128-39.609375 0-76 18.398438-99.761719 48h-268.238281v448h400v-91.054688l48.296875 24.144532c-.121094.964844-.296875 1.917968-.296875 2.910156 0 13.230469 10.769531 24 24 24s24-10.769531 24-24-10.769531-24-24-24c-6.457031 0-12.296875 2.59375-16.617188 6.753906l-55.382812-27.699218zm72 172.214844c4.414062 0 8 3.585938 8 8s-3.585938 8-8 8-8-3.585938-8-8 3.585938-8 8-8zm-112-184.335938c-43.28125-3.113281-80.984375-31.257812-96.441406-71.664062h19.097656c14.320312 32.199219 43.128906 52.847656 77.34375 55.648438zm16-16.070312c5.945312-.496094 11.710938-1.5625 17.304688-3.089844l7.3125 14.625c-7.875 2.398438-16.121094 3.863282-24.617188 4.472656zm48.296875-18 9.09375 13.140625c-5.582031 4.035156-11.542969 7.546875-17.832031 10.511719l-7.144532-14.292969c5.617188-2.617187 10.921876-5.753906 15.882813-9.359375zm21.4375 2.855469-9.222656-13.328125c3.761719-3.832032 7.183593-7.984375 10.265625-12.410156l13.933594 8.050781c-4.367188 6.421875-9.414063 12.316406-14.976563 17.6875zm22.890625-31.59375-13.882812-8.015625c5.875-12.40625 9.257812-26.222656 9.257812-40.839844s-3.382812-28.433594-9.246094-40.847656l13.878906-8.015625c7.207032 14.792969 11.367188 31.335937 11.367188 48.863281s-4.160156 34.070312-11.375 48.855469zm-7.921875-111.617188-13.933594 8.050781c-15.914062-22.855468-41.488281-38.449218-70.769531-40.882812v-16c35.183594 2.503906 65.960938 21.226562 84.703125 48.832031zm-100.703125-48.902343v16.015624c-34.214844 2.792969-63.023438 23.441407-77.34375 55.648438h-19.097656c15.457031-40.40625 53.160156-68.550781 96.441406-71.664062zm24 463.664062h-368v-416h241.320312c-4.34375 7.511719-7.90625 15.550781-10.6875 24h-110.632812v16h157.503906l1.960938-5.144531c12.015625-31.367188 39.800781-50.855469 72.535156-50.855469 44.113281 0 80 35.886719 80 80s-35.886719 80-80 80c-32.734375 0-60.519531-19.488281-72.527344-50.855469l-1.96875-5.144531h-157.503906v16h110.632812c17.160157 52.113281 66.078126 88 121.367188 88 5.433594 0 10.742188-.449219 16-1.113281v124.167969l-32.296875-16.144532c.121094-.964844.296875-1.917968.296875-2.910156 0-13.230469-10.769531-24-24-24s-24 10.769531-24 24c0 .734375.152344 1.441406.214844 2.160156l-63.0625 29.113282c-4.359375-4.472657-10.425782-7.273438-17.152344-7.273438-6.144531 0-11.6875 2.382812-15.9375 6.191406l-48.4375-26.414062c.191406-1.242188.375-2.488282.375-3.777344 0-13.230469-10.769531-24-24-24s-24 10.769531-24 24c0 3.695312.902344 7.152344 2.40625 10.28125l-48.117188 48.117188c-3.136718-1.496094-6.59375-2.398438-10.289062-2.398438-13.230469 0-24 10.769531-24 24s10.769531 24 24 24 24-10.769531 24-24c0-3.695312-.902344-7.152344-2.40625-10.28125l48.117188-48.117188c3.136718 1.496094 6.59375 2.398438 10.289062 2.398438 6.144531 0 11.6875-2.382812 15.9375-6.191406l48.4375 26.414062c-.191406 1.242188-.375 2.488282-.375 3.777344 0 13.230469 10.769531 24 24 24s24-10.769531 24-24c0-.742188-.152344-1.441406-.214844-2.160156l63.0625-29.113282c4.359375 4.472657 10.425782 7.273438 17.152344 7.273438 6.457031 0 12.296875-2.59375 16.617188-6.753906l39.382812 19.699218zm-48-120c0 4.414062-3.585938 8-8 8s-8-3.585938-8-8 3.585938-8 8-8 8 3.585938 8 8zm-104 48c0 4.414062-3.585938 8-8 8s-8-3.585938-8-8 3.585938-8 8-8 8 3.585938 8 8zm-104-48c0-4.414062 3.585938-8 8-8s8 3.585938 8 8-3.585938 8-8 8-8-3.585938-8-8zm-64 80c0 4.414062-3.585938 8-8 8s-8-3.585938-8-8 3.585938-8 8-8 8 3.585938 8 8zm160-232h-176v112h176zm-16 96h-144v-80h144zm-16-48h-112v-16h112zm-48 32h-64v-16h64zm16-16h32v16h-32zm136-136h-16v-16h16zm-32 0h-16v-16h16zm-32 0h-16v-16h16zm-32 0h-16v-16h16zm-32 0h-16v-16h16zm0 0" fill="url(#a)"/></svg>