<svg id="Filled_expand" enable-background="new 0 0 512 512" height="512" viewBox="0 0 512 512" width="512" xmlns="http://www.w3.org/2000/svg"><path d="m220.68 405.89c-21.53 13.51-46.33 22.57-73.26 25.72-54.39 6.37-105.88-12.69-142.55-47.77 12.15-18.78 27.83-35.2 46.23-48.23 14.07 19.28 32.3 36.01 54.3 48.71 36.28 20.94 76.9 27.55 115.28 21.57z" fill="#bc5eff"/><path d="m20.68 260.857c8.46 50.03 38.37 96.08 85.79 123.46 44.69 25.79 95.96 29.85 141.53 15.41-49.43-8.82-94.81-38.59-121.9-85.52-11.59-20.08-18.79-41.48-21.89-63.11-28.41-3.56-57.09-.08-83.53 9.76z" fill="#d191ff"/><path d="m288 405.89c21.53 13.51 46.33 22.57 73.26 25.72 54.39 6.37 105.88-12.69 142.55-47.77-12.15-18.78-27.83-35.2-46.23-48.23-14.07 19.28-32.3 36.01-54.3 48.71-36.28 20.94-76.9 27.55-115.28 21.57z" fill="#bc5eff"/><ellipse cx="256.024" cy="264.022" fill="#d191ff" rx="64.024" ry="136.026"/><path d="m255.09 399.257c-.48-.09-.95-.19-1.43-.28-47.9-9.66-91.6-39.08-117.98-84.77-11.43-19.79-18.59-40.88-21.76-62.19-4.43-29.74-1.11-59.91 9.2-87.62 29.24 4.94 57.1 17.22 80.69 36.02-7.62 19.74-11.81 41.18-11.81 63.61 0 7.63.48 15.15 1.43 22.52 5.7 44.82 28.22 84.38 61.01 112.16.22.18.43.369.65.55z" fill="#bc5eff"/><path d="m404.47 251.096c-3.1 21.63-10.3 43.03-21.89 63.11-27.09 46.93-72.47 76.7-121.9 85.52-.52.09-1.04.18-1.56.27-.11-.29-.22-.59-.32-.88-.13-.37-.26-.73-.39-1.1 32.36-27.75 54.57-67.04 60.22-111.52.94-7.36 1.42-14.86 1.42-22.47 0-20.95-3.66-41.05-10.36-59.69 24.56-21.03 54.23-34.67 85.45-39.94 10.21 27.421 13.57 57.26 9.33 86.7z" fill="#bc5eff"/><path d="m488 260.857c-8.46 50.03-38.37 96.08-85.79 123.46-44.69 25.79-95.96 29.85-141.53 15.41 49.43-8.82 94.81-38.59 121.9-85.52 11.59-20.08 18.79-41.48 21.89-63.11 28.41-3.56 57.09-.08 83.53 9.76z" fill="#d191ff"/><path d="m260.68 399.727c-.52.09-1.04.18-1.56.27-.11-.29-.22-.59-.32-.88-.128-.364-.256-.719-.384-1.083-.791.678-1.588 1.35-2.392 2.014-.319-.264-.638-.529-.955-.796-.473-.089-.936-.187-1.409-.276-11.91 3.954-24.227 6.638-36.729 7.993 3.749 24.393 18.525 45.142 39.069 57.031 20.545-11.89 35.322-32.641 39.069-57.034-11.685-1.268-23.209-3.697-34.389-7.239z" fill="#ffd642"/><path d="m510.527 379.494c-11.544-17.843-25.865-33.363-42.633-46.219 14.007-21.184 23.635-45.306 27.995-71.085.64-3.786-1.5-7.493-5.098-8.832-24.627-9.165-51.13-12.977-77.239-11.177 2.384-27.207-1.339-54.862-10.914-80.577-1.339-3.597-5.048-5.739-8.829-5.097-29.372 4.958-57.034 16.912-80.644 34.766-11.404-26.605-29.079-50.45-52.042-69.442-2.958-2.447-7.239-2.447-10.197 0-21.973 18.174-39.104 40.791-50.532 66.019-22.558-15.949-48.606-26.724-75.941-31.342-3.783-.639-7.491 1.5-8.831 5.099-9.634 25.894-13.34 53.73-10.866 81.119-28.166-2.936-56.84.691-83.547 10.634-3.598 1.339-5.737 5.045-5.097 8.831 4.359 25.779 13.988 49.901 27.995 71.085-16.769 12.855-31.09 28.376-42.633 46.219-2.085 3.223-1.587 7.473 1.187 10.126 34.618 33.117 80.105 51.201 127.357 51.201 7.187 0 14.416-.418 21.652-1.266 21.334-2.495 41.62-8.497 60.522-17.886 6.594 20.633 20.613 38.151 39.801 49.255 1.24.717 2.624 1.076 4.007 1.076s2.768-.359 4.007-1.076c19.188-11.104 33.207-28.621 39.801-49.255 18.903 9.39 39.188 15.391 60.521 17.886 7.24.848 14.463 1.266 21.653 1.266 47.249 0 92.742-18.086 127.358-51.201 2.774-2.654 3.272-6.904 1.187-10.127zm-99.13-121.093c22.67-2.012 45.753.634 67.462 7.734-9.844 46.891-38.952 87.177-80.648 111.252-27.378 15.799-58.497 23.424-89.571 22.464-4.712-.176-9.422-.551-14.118-1.129 39.754-14.88 73.39-43.103 94.986-80.517 10.8-18.708 18.149-38.799 21.889-59.804zm-21.534-84.865c8.052 24.596 10.368 50.873 6.688 76.42v.006c-3.041 21.217-10.072 41.487-20.899 60.245-20.999 36.379-54.465 63.245-93.841 76.013 16.827-18.999 29.445-41.13 37.213-65.034.001-.002.002-.005.002-.007.086-.265.172-.531.257-.796.018-.056.035-.112.053-.167.052-.162.103-.324.154-.486.05-.157.099-.315.148-.472.012-.04.025-.08.037-.119 3.203-10.253 5.519-20.83 6.89-31.628.985-7.712 1.484-15.614 1.484-23.484 0-13.499-1.449-26.833-4.322-39.855-.034-.154-.068-.308-.102-.461-.015-.066-.029-.132-.044-.198-1.253-5.597-2.764-11.119-4.525-16.549 20.616-16.532 44.883-27.984 70.807-33.428zm-133.839-34.986c20.977 18.79 36.649 42.205 46.006 68.093.04.134.084.267.132.399 1.721 4.787 3.218 9.636 4.492 14.54.03.116.06.232.09.348.036.139.071.279.107.418 3.422 13.465 5.198 27.448 5.198 41.674 0 20.682-3.752 40.848-10.861 59.659-.004.01-.008.021-.012.031-.108.284-.216.568-.325.852-.026.069-.053.138-.079.206-.053.138-.107.275-.161.413-9.512 24.427-24.702 46.462-44.591 64.29-15.112-13.543-27.507-29.507-36.76-47.11-.105-.199-.21-.399-.314-.599-.033-.063-.066-.127-.099-.19-.14-.27-.279-.54-.418-.81-.012-.023-.023-.046-.035-.069-8.141-15.93-13.718-33.139-16.452-51.036-.001-.006-.002-.012-.003-.018-.049-.318-.096-.635-.142-.953-.009-.058-.017-.116-.026-.174-.032-.219-.063-.438-.094-.658-.11-.776-.215-1.553-.314-2.332-.022-.173-.044-.347-.066-.52-.766-6.154-1.197-12.383-1.282-18.662l-.001-.107c-.004-.339-.008-.679-.01-1.019 0-.055-.001-.11-.001-.165-.002-.342-.003-.684-.003-1.027 0-.009 0-.018 0-.027 0-.344.001-.687.003-1.031.001-.11.002-.219.003-.329.002-.254.004-.509.008-.763.001-.1.003-.2.004-.3.004-.272.008-.543.013-.815.002-.081.003-.161.005-.242.006-.315.014-.629.022-.944.001-.03.001-.059.002-.089.417-15.673 2.988-31.011 7.54-45.646.029-.092.057-.184.086-.275.051-.164.104-.328.155-.492 1.041-3.285 2.185-6.544 3.431-9.773.031-.079.06-.159.087-.239 9.481-24.465 24.661-46.59 44.665-64.509zm-127.626 34.989c23.808 5.011 46.364 15.156 65.87 29.63-1.36 3.903-2.591 7.855-3.687 11.852-.04.147-.08.294-.12.44-.008.03-.016.06-.024.089-3.878 14.265-6.016 28.947-6.38 43.872-.003.107-.005.215-.008.323-.005.217-.01.435-.014.652-.003.174-.007.348-.009.523-.002.113-.004.226-.005.339-.004.254-.007.509-.01.763 0 .02 0 .039-.001.059-.003.284-.005.569-.007.853 0 .076-.001.152-.001.229-.001.287-.002.574-.002.861v.004.024c0 .224 0 .447.001.671 0 .08.001.159.001.239.001.155.002.31.003.464.001.089.002.177.002.266.001.141.003.282.004.423.001.106.002.212.004.317.002.12.003.24.005.359.002.122.004.244.006.365.002.098.003.197.005.295.002.133.005.265.008.398.002.088.004.176.006.264.123 5.632.499 11.243 1.123 16.748.443 3.929 1.009 7.832 1.698 11.703.02.11.039.22.059.33.02.108.039.217.059.325.031.173.063.346.095.518.002.01.004.019.005.029 2.873 15.566 7.72 30.58 14.368 44.725.038.081.076.161.114.242.054.114.108.228.162.342.081.172.163.343.245.515.017.035.034.071.051.106 6.73 14.06 15.254 27.267 25.418 39.292-35.466-13.805-65.531-39.349-84.833-72.782-10.675-18.482-17.665-38.456-20.775-59.368-3.85-25.838-1.576-52.418 6.564-77.299zm-21.415 85.552c3.781 20.768 11.091 40.628 21.769 59.116 21.223 36.759 54.327 64.807 93.37 79.878-7.254 1.101-14.555 1.716-21.852 1.854-30.027.388-59.958-7.24-86.48-22.55-41.698-24.076-70.806-64.363-80.65-111.255 23.806-7.797 49.097-10.21 73.843-7.043zm42.827 164.573c-47.828 5.602-95.24-9.324-131.14-41.053 9.598-13.631 21.057-25.657 34.183-35.875 14.329 17.944 31.745 32.896 51.868 44.513 24.729 14.273 52.435 22.542 80.646 24.342-11.422 3.94-23.299 6.639-35.557 8.073zm106.19 30.919c-14.537-9.703-24.923-24.136-29.463-40.82 8.195-1.288 16.315-3.128 24.265-5.5.095-.028.19-.057.286-.086.185-.055.369-.111.554-.167.135-.041.269-.082.403-.123.149-.046.298-.091.447-.137l.426-.132c.092-.029.185-.057.277-.086.002.001.004.001.006.002.046.018.093.035.139.051.016.006.032.011.048.017.035.012.07.024.105.036.018.006.035.011.053.017.034.011.068.022.101.032.018.006.036.011.054.017.034.01.069.021.103.031.017.005.035.01.052.015.039.011.078.022.117.032.012.003.024.007.036.01.051.013.103.026.154.038.013.003.026.006.038.009.038.009.077.018.115.026.019.004.038.008.058.012.034.007.067.014.101.021.018.004.037.007.055.011.034.006.068.013.102.019.02.004.04.007.061.011.033.005.065.011.098.016l.057.009c.046.007.093.013.139.019.006.001.012.002.018.003.018.002.037.004.055.006.031.004.062.008.093.011.025.003.05.005.075.008.027.003.054.005.081.008.026.002.053.005.079.007.025.002.05.004.075.006.029.002.058.004.086.006.02.001.04.002.06.003.032.002.065.003.097.005.013 0 .027.001.04.001l.093.003c.035.001.071.001.106.001h.055.02c.025 0 .05 0 .075-.001.019 0 .039 0 .058-.001h.037c.02 0 .04-.001.06-.002.019 0 .039-.001.058-.002.031-.001.062-.002.093-.004.021-.001.043-.002.064-.003.031-.002.062-.003.093-.006.02-.001.04-.003.06-.004.037-.003.075-.006.112-.009.041-.004.083-.008.124-.012.025-.003.05-.006.074-.009.027-.003.055-.006.082-.01.024-.003.049-.006.073-.01.029-.004.059-.008.088-.012.021-.003.042-.006.062-.009.036-.006.073-.011.109-.018.014-.002.028-.005.042-.007.104-.018.209-.038.312-.06.017.003.034.006.052.009.001 0 .003 0 .004.001.492.085.996.125 1.506.115.293-.004.584-.025.872-.061 8.282 2.527 16.764 4.477 25.329 5.823-4.533 16.687-14.92 31.12-29.459 40.824zm106.189-30.919c-12.258-1.434-24.135-4.133-35.556-8.073 28.208-1.801 55.919-10.07 80.647-24.343 20.123-11.617 37.54-26.568 51.868-44.512 13.125 10.218 24.584 22.244 34.182 35.875-35.899 31.73-83.311 46.656-131.141 41.053z"/><path d="m64 96h16v16h-16z"/><path d="m64 128h16v16h-16z"/><path d="m48 112h16v16h-16z"/><path d="m80 112h16v16h-16z"/><path d="m432 40h16v16h-16z"/><path d="m432 72h16v16h-16z"/><path d="m416 56h16v16h-16z"/><path d="m448 56h16v16h-16z"/><path d="m248 88h16v16h-16z"/><path d="m176 128h16v16h-16z"/><path d="m320 128h16v16h-16z"/></svg>