<svg id="Layer_5" enable-background="new 0 0 64 64" height="512" viewBox="0 0 64 64" width="512" xmlns="http://www.w3.org/2000/svg" xmlns:xlink="http://www.w3.org/1999/xlink"><linearGradient id="SVGID_1_" gradientUnits="userSpaceOnUse" x1="32" x2="32" y1="63" y2="1"><stop offset="0" stop-color="#9f2fff"/><stop offset="1" stop-color="#0bb1d3"/></linearGradient><path d="m55 25h-8v-8h-8.261c-1.445-9.053-9.286-16-18.739-16-10.477 0-19 8.523-19 19 0 8.003 4.981 14.852 12 17.647v9.353h8v8h8v8h34v-30h-8zm-51.949-4h7.993c.127 2.996.789 5.682 1.708 8h-7.148c-1.472-2.347-2.382-5.073-2.553-8zm16.949-17.599c.902.935 2.579 2.868 4.073 5.599h-8.146c1.494-2.731 3.171-4.664 4.073-5.599zm5.054 7.599c1.002 2.283 1.758 4.977 1.901 8h-13.91c.143-3.023.9-5.717 1.901-8zm11.895 8h-7.993c-.127-2.996-.789-5.682-1.708-8h7.148c1.472 2.347 2.382 5.073 2.553 8zm-25.906 0h-7.992c.172-2.927 1.081-5.653 2.554-8h7.148c-.92 2.318-1.583 5.004-1.71 8zm2.002 2h13.911c-.143 3.023-.9 5.717-1.901 8h-10.109c-1.001-2.283-1.758-4.977-1.901-8zm11.028 10c-1.494 2.731-3.171 4.664-4.073 5.599-.902-.935-2.579-2.869-4.073-5.599zm2.289 0h6.576c-2.6 3.053-6.256 5.164-10.4 5.789 1.132-1.322 2.579-3.276 3.824-5.789zm8.034-2h-7.148c.919-2.318 1.582-5.004 1.708-8h7.993c-.171 2.927-1.081 5.653-2.553 8zm-1.458-20h-6.576c-1.245-2.513-2.692-4.467-3.824-5.789 4.144.624 7.801 2.736 10.4 5.789zm-15.477-5.789c-1.131 1.322-2.578 3.276-3.823 5.789h-6.576c2.599-3.053 6.256-5.165 10.399-5.789zm-10.399 27.789h6.576c1.245 2.513 2.692 4.467 3.823 5.789-4.143-.625-7.8-2.736-10.399-5.789zm7.938 7.31c1.596.437 3.267.69 5 .69 10.477 0 19-8.523 19-19 0-.338-.033-.667-.051-1h6.051v26h-30zm8 8.69h24v-20h6v26h-30zm38-12v26h-30v-6h24v-20zm-46-18v-2h2v2zm6 0h-2v-2h2zm4 0h-2v-2h2zm-10 6h2v2h-2zm4 0h2v2h-2zm6 0v2h-2v-2zm-8 18h2v2h-2zm4 0h2v2h-2zm4 0h2v2h-2zm24-12h2v2h-2zm0 4h2v2h-2zm0 4h2v2h-2zm-16 20h2v2h-2zm4 0h2v2h-2zm4 0h2v2h-2z" fill="url(#SVGID_1_)"/></svg>