<svg height="512" viewBox="0 0 64 64" width="512" xmlns="http://www.w3.org/2000/svg"><g id="Planet_Earth" data-name="Planet Earth"><path d="m24 12v4l-4 4v4l-4 4h-3v3l5 5v3l-3 3v3l-4.14 4.14a27.992 27.992 0 0 1 6.18-40.14h3.96z" fill="#00ccb3"/><path d="m39 42v4l-2 2v4l-3 3v4.97c-.33.02-.66.03-1 .03a27.016 27.016 0 0 1 -3-.16v-7.84l-2-2v-4h-4l-2-2v-3l3-3 1-1h8z" fill="#00ccb3"/><path d="m51 47v6.45a27.867 27.867 0 0 1 -17 6.52v-4.97l3-3v-4l2-2v-4l-5-5h-8l-4 4v3l2 2h4v4l2 2v7.84a27.977 27.977 0 0 1 -19.14-10.7l4.14-4.14v-3l3-3v-3l-5-5v-3h3l4-4v-4l4-4v-4l-3-3h-3.96a27.84 27.84 0 0 1 12.96-4.84v7.84l4 4h5l5 5v6l-2 2v4l4 4v5z" fill="#3d9ae2"/><path d="m39 25v3l-2 2h-2v-4l-2-2v-2h6z" fill="#00ccb3"/><path d="m33 4a28 28 0 0 1 18 49.45v-6.45l-5-5v-5l-4-4v-4l2-2v-6l-5-5h-5l-4-4v-7.84a27.016 27.016 0 0 1 3-.16z" fill="#00ccb3"/><path d="m33 3a29 29 0 1 0 29 29 29.032 29.032 0 0 0 -29-29zm-15.623 7h3.209l2.414 2.414v3.172l-3.707 3.707a1 1 0 0 0 -.293.707v3.586l-3.414 3.414h-2.586a1 1 0 0 0 -1 1v3a1 1 0 0 0 .293.707l4.707 4.707v2.172l-2.707 2.707a1 1 0 0 0 -.293.707v2.586l-3.015 3.014a26.939 26.939 0 0 1 6.392-37.6zm-5.168 39.205 3.5-3.5a1 1 0 0 0 .291-.705v-2.586l2.707-2.707a1 1 0 0 0 .293-.707v-3a1 1 0 0 0 -.293-.707l-4.707-4.707v-1.586h2a1 1 0 0 0 .707-.293l4-4a1 1 0 0 0 .293-.707v-3.586l3.707-3.707a1 1 0 0 0 .293-.707v-4a1 1 0 0 0 -.293-.707l-3-3a1 1 0 0 0 -.707-.293h-.345a26.784 26.784 0 0 1 8.345-2.7v6.7a1 1 0 0 0 .293.707l4 4a1 1 0 0 0 .707.293h4.586l4.414 4.414v5.172l-1.707 1.707a1 1 0 0 0 -.293.707v4a1 1 0 0 0 .293.707l3.707 3.707v4.586a1 1 0 0 0 .293.707l4.707 4.707v5.542a26.863 26.863 0 0 1 -15 5.962v-3.5l2.707-2.707a1 1 0 0 0 .293-.711v-3.586l1.707-1.707a1 1 0 0 0 .293-.707v-4a1 1 0 0 0 -.293-.707l-5-5a1 1 0 0 0 -.707-.293h-8a1 1 0 0 0 -.707.293l-4 4a1 1 0 0 0 -.293.707v3a1 1 0 0 0 .293.707l2 2a1 1 0 0 0 .707.293h3v3a1 1 0 0 0 .293.707l1.707 1.707v6.286a27 27 0 0 1 -16.791-9.495zm18.791 9.713v-6.918a1 1 0 0 0 -.293-.707l-1.707-1.707v-3.586a1 1 0 0 0 -1-1h-3.586l-1.414-1.414v-2.172l3.414-3.414h7.172l4.414 4.414v3.172l-1.707 1.707a1 1 0 0 0 -.293.707v3.586l-2.707 2.707a1 1 0 0 0 -.293.707v4c-.673 0-1.339-.033-2-.082zm21-7.756v-4.162a1 1 0 0 0 -.293-.707l-4.707-4.707v-4.586a1 1 0 0 0 -.293-.707l-3.707-3.707v-3.172l1.707-1.707a1 1 0 0 0 .293-.707v-6a1 1 0 0 0 -.293-.707l-5-5a1 1 0 0 0 -.707-.293h-4.586l-3.414-3.414v-6.5c.661-.053 1.327-.086 2-.086a26.985 26.985 0 0 1 19 46.162z"/><path d="m34 26.414v3.586a1 1 0 0 0 1 1h2a1 1 0 0 0 .707-.293l2-2a1 1 0 0 0 .293-.707v-6a1 1 0 0 0 -1-1h-6a1 1 0 0 0 -1 1v2a1 1 0 0 0 .293.707zm0-3.414h4v4.586l-1.414 1.414h-.586v-3a1 1 0 0 0 -.293-.707l-1.707-1.707z"/><path d="m16 3.287h2v2h-2z" transform="matrix(.866 -.5 .5 .866 .134 9.075)"/><path d="m9.373 8.373h2v2h-2z" transform="matrix(.707 -.707 .707 .707 -3.589 10.08)"/><path d="m4.287 15h2v2h-2z" transform="matrix(.5 -.866 .866 .5 -11.213 12.578)"/><path d="m4.287 47h2v2h-2z" transform="matrix(.866 -.5 .5 .866 -23.288 9.072)"/><path d="m9.373 53.628h2v2h-2z" transform="matrix(.707 -.707 .707 .707 -35.589 23.335)"/><path d="m16 58.712h2v2h-2z" transform="matrix(.5 -.866 .866 .5 -43.214 44.584)"/><path d="m48 58.713h2v2h-2z" transform="matrix(.866 -.5 .5 .866 -23.292 32.502)"/><path d="m54.628 53.628h2v2h-2z" transform="matrix(.707 -.707 .707 .707 -22.335 55.335)"/><path d="m59.712 47h2v2h-2z" transform="matrix(.5 -.866 .866 .5 -11.214 76.577)"/><path d="m59.713 15h2v2h-2z" transform="matrix(.866 -.5 .5 .866 .132 32.494)"/><path d="m54.628 8.373h2v2h-2z" transform="matrix(.707 -.707 .707 .707 9.666 42.08)"/><path d="m48 3.287h2v2h-2z" transform="matrix(.5 -.866 .866 .5 20.791 44.582)"/></g></svg>