<svg height="512pt" viewBox="0 0 512 511" width="512pt" xmlns="http://www.w3.org/2000/svg" xmlns:xlink="http://www.w3.org/1999/xlink"><linearGradient id="linear0" gradientUnits="userSpaceOnUse" x1="256" x2="256" y1=".4996" y2="512.4064"><stop offset="0" stop-color="#2af598"/><stop offset="1" stop-color="#009efd"/></linearGradient><path d="m60 186.5c33.085938 0 60-26.914062 60-60s-26.914062-60-60-60-60 26.914062-60 60 26.914062 60 60 60zm0-80c11.027344 0 20 8.972656 20 20s-8.972656 20-20 20-20-8.972656-20-20 8.972656-20 20-20zm392 14c33.085938 0 60-26.914062 60-60s-26.914062-60-60-60-60 26.914062-60 60 26.914062 60 60 60zm0-80c11.027344 0 20 8.972656 20 20s-8.972656 20-20 20-20-8.972656-20-20 8.972656-20 20-20zm0 100c-33.085938 0-60 26.914062-60 60v86.09375l-272 50.136719v-72.230469c0-33.085938-26.914062-60-60-60s-60 26.914062-60 60v135.023438l101.613281-18.730469 34.386719 39.460937-45.765625 70.339844 33.53125 21.8125 62.234375-95.660156-38.671875-44.378906 88.671875-16.34375v142.121093h40v-149.496093l104.4375-19.25-32.519531 80.902343 61.898437 72.214844 30.367188-26.03125-46.101563-53.785156 32.914063-81.882813 85.003906-15.667968v-104.648438c0-33.085938-26.914062-60-60-60zm-372 203.605469-40 7.371093v-86.976562c0-11.027344 8.972656-20 20-20s20 8.972656 20 20zm392-72.257813-40 7.375v-78.722656c0-11.027344 8.972656-20 20-20s20 8.972656 20 20zm0 0" fill="url(#linear0)"/></svg>