<?xml version="1.0" encoding="iso-8859-1"?>
<!-- Generator: Adobe Illustrator 19.0.0, SVG Export Plug-In . SVG Version: 6.00 Build 0)  -->
<svg version="1.1" id="Capa_1" xmlns="http://www.w3.org/2000/svg" xmlns:xlink="http://www.w3.org/1999/xlink" x="0px" y="0px"
	 viewBox="0 0 512 512" style="enable-background:new 0 0 512 512;" xml:space="preserve">
<g>
	<path style="fill:#1DE8F1;" d="M497,272h-90c-8.284,0-15-6.716-15-15s6.716-15,15-15h90c8.284,0,15,6.716,15,15
		S505.284,272,497,272z"/>
	<path style="fill:#1DE8F1;" d="M347.001,272H15c-8.284,0-15-6.716-15-15s6.716-15,15-15h332.001c8.284,0,15,6.716,15,15
		S355.285,272,347.001,272z"/>
</g>
<path style="fill:#1689FC;" d="M491.624,157.382c-13.03-30.536-31.64-58.022-55.312-81.694s-51.157-42.281-81.694-55.311
	C322.933,6.856,289.416,0,255,0C186.976,0,122.918,26.901,74.627,75.749C26.503,124.427,0,188.796,0,257
	c0,68.113,26.524,132.149,74.688,180.312S186.887,512,255,512c68.204,0,132.573-26.503,181.252-74.627
	C485.099,389.082,512,325.024,512,257C512,222.584,505.145,189.068,491.624,157.382z M255,482
	c-97.307,0-180.375-62.095-211.685-148.738c7.432,5.834,15.756,11.368,24.958,16.54c40.698,22.875,96.048,37.523,155.854,41.244
	c0.317,0.02,0.632,0.03,0.946,0.03c7.858,0,14.462-6.118,14.956-14.069c0.515-8.268-5.771-15.388-14.039-15.903
	C116.089,354.265,30,308.537,30,257c0-34.614,39.656-69.576,101.029-89.069c7.896-2.508,12.263-10.941,9.755-18.837
	c-2.508-7.896-10.943-12.264-18.837-9.755c-31.621,10.043-58.205,23.833-78.401,40.061C75.036,92.331,157.937,30,255,30
	c98.375,0,182.322,62.908,213.759,150.604c-10.364-8.203-22.481-15.863-36.284-22.843C384.321,133.411,321.293,120,255,120
	c-26.681,0-52.947,2.113-78.07,6.28c-8.173,1.355-13.699,9.079-12.344,17.252c1.355,8.172,9.082,13.699,17.252,12.344
	C205.344,151.977,229.959,150,255,150c61.68,0,119.9,12.264,163.937,34.533C459.015,204.8,482,231.213,482,257
	c0,23.673-19.142,47.328-53.898,66.609c-37.355,20.722-88.527,34.038-144.091,37.495c-8.269,0.514-14.554,7.634-14.039,15.903
	c0.494,7.951,7.098,14.069,14.956,14.069c0.313,0,0.629-0.01,0.946-0.03c59.925-3.729,115.604-18.362,156.78-41.203
	c9.661-5.359,18.379-11.101,26.119-17.161C437.348,419.626,353.39,482,255,482z"/>
<g>
	<path style="fill:#1DE8F1;" d="M255,362c-8.284,0-15-6.716-15-15V15c0-8.284,6.716-15,15-15s15,6.716,15,15v332
		C270,355.284,263.284,362,255,362z"/>
	<path style="fill:#1DE8F1;" d="M255,512c-8.284,0-15-6.716-15-15v-90c0-8.284,6.716-15,15-15s15,6.716,15,15v90
		C270,505.284,263.284,512,255,512z"/>
	<path style="fill:#1DE8F1;" d="M376.061,242.058c-7.858,0-14.462-6.117-14.956-14.069C354.311,118.818,306.712,30,255,30
		c-30.139,0-60.223,30.801-80.476,82.393c-3.026,7.712-11.732,11.509-19.444,8.481c-7.711-3.027-11.509-11.732-8.481-19.444
		C171.904,36.97,211.414,0,255,0c35.125,0,68.426,24.581,93.77,69.216c23.547,41.469,38.561,97.194,42.276,156.91
		c0.515,8.268-5.771,15.388-14.039,15.903C376.689,242.048,376.374,242.058,376.061,242.058z"/>
	<path style="fill:#1DE8F1;" d="M255,512c-75.701,0-135-112.009-135-255c0-32.74,3.251-66.702,9.153-95.63
		c1.657-8.117,9.582-13.354,17.696-11.698c8.117,1.656,13.354,9.579,11.698,17.696C153.036,194.381,150,226.213,150,257
		c0,61.823,11.92,119.71,33.563,162.997C203.266,459.401,229.303,482,255,482c23.971,0,48.022-18.859,67.724-53.103
		c21.322-37.061,34.953-87.805,38.381-142.887c0.514-8.269,7.646-14.555,15.902-14.039c8.269,0.514,14.554,7.634,14.039,15.903
		c-3.709,59.602-18.737,114.998-42.318,155.984C323.446,487.8,290.16,512,255,512z"/>
</g>
<g>
	<path style="fill:#FCBF29;" d="M377,302c-24.813,0-45-20.187-45-45s20.187-45,45-45s45,20.187,45,45S401.813,302,377,302z M377,242
		c-8.271,0-15,6.729-15,15s6.729,15,15,15s15-6.729,15-15S385.271,242,377,242z"/>
	<path style="fill:#FCBF29;" d="M255,422c-24.813,0-45-20.187-45-45s20.187-45,45-45s45,20.187,45,45S279.813,422,255,422z M255,362
		c-8.271,0-15,6.729-15,15s6.729,15,15,15s15-6.729,15-15S263.271,362,255,362z"/>
	<path style="fill:#FCBF29;" d="M150,180c-24.813,0-45-20.187-45-45s20.187-45,45-45s45,20.187,45,45S174.813,180,150,180z M150,120
		c-8.271,0-15,6.729-15,15s6.729,15,15,15s15-6.729,15-15S158.271,120,150,120z"/>
</g>
<g>
</g>
<g>
</g>
<g>
</g>
<g>
</g>
<g>
</g>
<g>
</g>
<g>
</g>
<g>
</g>
<g>
</g>
<g>
</g>
<g>
</g>
<g>
</g>
<g>
</g>
<g>
</g>
<g>
</g>
</svg>
